<svg xmlns="http://www.w3.org/2000/svg" viewBox="0 0 512 512">
  <defs>
    <linearGradient id="bg" x1="0%" y1="0%" x2="100%" y2="100%">
      <stop offset="0%" stop-color="#0f5e63" />
      <stop offset="100%" stop-color="#b86831" />
    </linearGradient>
  </defs>
  <rect width="512" height="512" rx="112" fill="#f6f1e8" />
  <rect x="28" y="28" width="456" height="456" rx="96" fill="url(#bg)" />
  <path d="M136 150h240v36H136z" fill="#fff7ef" opacity="0.92" />
  <path d="M136 214h240v20H136zM136 254h168v20H136z" fill="#f5eadf" opacity="0.92" />
  <path d="M136 314h72c45 0 74 20 74 52 0 21-11 38-30 49 26 10 42 31 42 57 0 48-38 76-96 76h-62zm56 45v40h10c16 0 24-7 24-20 0-13-8-20-24-20zm0 84v46h18c18 0 28-8 28-23 0-16-10-23-30-23z" fill="#fffaf3" />
  <circle cx="354" cy="380" r="42" fill="#fffaf3" opacity="0.96" />
  <path d="M354 352l8 20 22 2-17 14 5 22-18-11-18 11 5-22-17-14 22-2z" fill="#0f5e63" />
</svg>
